<svg xmlns="http://www.w3.org/2000/svg" width="58" height="47" viewBox="0 0 58 47" fill="none">
<path fill-rule="evenodd" clip-rule="evenodd" d="M23.2038 3.84393C22.9793 3.98878 22.718 4.05934 22.453 4.04077V4.04448C19.4093 4.04448 16.8919 6.24312 16.8698 7.55414C16.8698 8.20036 17.374 8.50118 18.0549 8.62746C20.3772 9.02856 21.6617 9.94961 23.443 12.7833C24.7828 14.8687 26.4591 17.5061 27.4924 19.1318C28.0288 19.9758 28.3919 20.5472 28.4448 20.6271C28.6693 20.9725 28.7944 21.0096 28.96 21.0096C29.1256 21.0096 29.2581 20.9762 29.4937 20.6271C29.5449 20.5435 29.9414 19.923 30.5215 19.0151C31.5653 17.3814 33.2037 14.817 34.4954 12.7759C36.3246 9.93104 37.5649 9.02485 39.8835 8.62374C40.5718 8.49747 41.0686 8.19664 41.0686 7.55042C41.0686 6.24312 38.5659 4.04077 35.5038 4.04077C35.2388 4.05934 34.9738 3.98878 34.753 3.84393C34.5322 3.69909 34.3629 3.48368 34.2709 3.23114C33.763 2.25438 33.0011 1.43732 32.07 0.869087C31.1388 0.300858 30.0678 3.05176e-05 28.9784 3.05176e-05C27.889 3.05176e-05 26.818 0.300858 25.8868 0.869087C24.952 1.44103 24.1902 2.25438 23.6859 3.23114C23.5976 3.48368 23.4246 3.69909 23.2038 3.84393ZM21.2532 15.1899C18.7431 11.2421 15.6295 9.96818 12.6925 9.96818H12.6888C8.78018 9.96818 7.36689 12.0405 7.36689 12.8836C7.36689 13.2253 7.54723 13.5298 8.13978 13.5298C10.9259 13.5298 12.6778 15.1974 14.0358 17.4294C15.3939 19.6652 22.1475 30.6064 22.2359 30.7327C22.2763 30.8144 22.3389 30.8887 22.4162 30.9369C22.4972 30.9889 22.5855 31.0149 22.6775 31.0149C22.7732 31.0149 22.8652 30.9889 22.9462 30.9407C23.0271 30.8924 23.0971 30.8218 23.1412 30.7401C23.2369 30.5841 26.7959 24.9353 26.8806 24.8164C26.9542 24.7087 26.9947 24.5824 26.9983 24.4525C26.9947 24.3262 26.9579 24.2036 26.8842 24.1033C26.818 23.9808 22.5303 17.1917 21.2532 15.1899ZM20.3699 46.346C21.117 46.7768 21.9635 46.9996 22.8247 46.9996C23.6859 47.0108 24.5361 46.7917 25.2869 46.3608C26.0377 45.9337 26.6597 45.3098 27.094 44.5559C28.0804 42.97 42.5555 19.6615 43.9099 17.4332C45.2643 15.2048 47.0126 13.5335 49.8023 13.5335C50.3949 13.5335 50.5789 13.229 50.5789 12.8873C50.5789 12.0443 49.1472 9.9719 45.2386 9.9719C42.2906 9.9719 39.1879 11.2458 36.6779 15.1937C35.3897 17.1917 25.4047 33.0762 23.2921 36.4781C23.2001 36.6378 23.0198 36.8904 22.7658 36.8904C22.5119 36.8904 22.3831 36.7344 22.2211 36.4781C17.9371 29.7114 12.1956 20.5826 12.1956 20.5826C9.84751 16.8018 7.13134 15.8807 4.79795 15.8807C1.7027 15.8807 -0.00134277 17.5037 -0.00134277 18.577C-0.00134277 18.9596 0.164277 19.3718 0.900364 19.3718C2.76266 19.3718 3.46195 20.3486 5.51563 23.6911C7.07246 26.1534 18.5665 44.5447 18.5665 44.5447C19.0007 45.2949 19.6227 45.9152 20.3699 46.346ZM52.478 23.6911C54.5354 20.3486 55.231 19.3718 57.0933 19.3718H57.0969C57.8257 19.3718 57.9987 18.9596 57.9987 18.577C57.9987 17.5037 56.2946 15.8807 53.1994 15.8807C50.8733 15.8807 48.1756 16.8018 45.8017 20.5826C45.8017 20.5826 31.2529 43.6682 31.1572 43.8317C31.0137 43.9876 30.9217 44.1808 30.8886 44.3887C30.9217 44.5967 31.0137 44.7861 31.1572 44.9347C31.621 45.5772 32.2319 46.0972 32.9349 46.4574C33.6378 46.8139 34.4144 46.9996 35.202 46.9996C36.0596 47.0033 36.9061 46.7768 37.6532 46.346C38.4003 45.9152 39.0223 45.2949 39.4566 44.5447C39.4566 44.5447 50.9543 26.1534 52.478 23.6911Z" fill="#D5C9BE"/>
</svg>